<svg width="45" height="16" viewBox="0 0 45 16" fill="none" xmlns="http://www.w3.org/2000/svg">
<g clip-path="url(#clip0_1258_20)">
<path fill-rule="evenodd" clip-rule="evenodd" d="M24.749 15.8802C24.9249 15.957 25.1613 16 25.4076 16C25.6538 16 25.8903 15.957 26.0661 15.8802C27.8671 15.018 29.7219 14.1917 31.6035 13.3774C34.4528 12.1799 37.329 10.9824 40.2859 9.78489C40.716 9.59329 43.404 8.58738 44.3448 8.02456C44.6301 7.88912 44.832 7.72312 44.931 7.54268C45.0299 7.36224 45.0224 7.17348 44.9093 6.9947C43.8117 5.92479 42.1522 4.98831 40.0708 4.26439C35.9044 2.71961 30.0444 1.41432 26.8994 0.0731192C26.7068 0.0184469 26.4793 -0.00669289 26.2516 0.00152779C26.0239 0.00974751 25.8084 0.0508766 25.638 0.118656C25.4676 0.186437 25.3516 0.277157 25.3076 0.377018C25.2635 0.476879 25.2939 0.580414 25.3941 0.671872C28.3241 2.12085 33.9152 3.64168 37.9204 5.30622C38.799 5.67523 39.6081 6.07574 40.3396 6.50372C35.9044 6.3241 31.4691 6.14447 27.0338 6.04867C25.0268 6.04867 23.0107 6.02472 20.9857 5.97682H14.9645C10.2605 6.06065 5.61014 6.25225 0.932949 6.40792C0.794105 6.40844 0.657238 6.42264 0.532171 6.44951C0.407103 6.47638 0.296935 6.51524 0.209571 6.56332C0.122208 6.6114 0.0598142 6.66749 0.0268682 6.72758C-0.00607781 6.78767 -0.00875968 6.85027 0.019015 6.91087C0.0187923 6.96485 0.0433905 7.01827 0.0912928 7.06785C0.139195 7.11742 0.209386 7.1621 0.297537 7.19913C0.385688 7.23615 0.489931 7.26474 0.603837 7.28313C0.717743 7.30152 0.838897 7.30932 0.95983 7.30605C6.33591 7.38988 11.712 7.54555 17.0881 7.58148H26.6844C31.2809 7.58148 35.8506 7.50963 40.4472 7.58148C39.3988 8.03653 38.1892 8.52751 37.8935 8.65923C35.6356 9.74896 33.3507 10.8147 31.1465 11.9284C28.9423 13.0421 26.6844 14.1079 24.6415 15.2934C24.4827 15.3779 24.4049 15.4868 24.425 15.5966C24.4452 15.7064 24.5615 15.8083 24.749 15.8802Z" fill="#FCA311"/>
</g>
<defs>
<clipPath id="clip0_1258_20">
<rect width="45" height="16" fill="white"/>
</clipPath>
</defs>
</svg>
